<?xml version="1.0" encoding="UTF-8" standalone="no"?>
<svg
   width="40"
   height="41"
   version="1.1"
   id="svg7"
   sodipodi:docname="google.svg"
   inkscape:version="1.4.3 (0d15f75042, 2025-12-25)"
   xmlns:inkscape="http://www.inkscape.org/namespaces/inkscape"
   xmlns:sodipodi="http://sodipodi.sourceforge.net/DTD/sodipodi-0.dtd"
   xmlns="http://www.w3.org/2000/svg"
   xmlns:svg="http://www.w3.org/2000/svg">
  <defs
     id="defs7" />
  <sodipodi:namedview
     id="namedview7"
     pagecolor="#ffffff"
     bordercolor="#000000"
     borderopacity="0.25"
     inkscape:showpageshadow="2"
     inkscape:pageopacity="0.0"
     inkscape:pagecheckerboard="0"
     inkscape:deskcolor="#d1d1d1"
     showgrid="false"
     inkscape:zoom="23.895833"
     inkscape:cx="19.982563"
     inkscape:cy="11.131648"
     inkscape:window-width="2560"
     inkscape:window-height="1361"
     inkscape:window-x="0"
     inkscape:window-y="0"
     inkscape:window-maximized="1"
     inkscape:current-layer="svg7">
    <inkscape:grid
       id="grid7"
       units="px"
       originx="20"
       originy="20"
       spacingx="1"
       spacingy="1"
       empcolor="#0099e5"
       empopacity="0.30196078"
       color="#0099e5"
       opacity="0.14901961"
       empspacing="5"
       enabled="true"
       visible="false" />
  </sodipodi:namedview>
  <circle
     style="opacity:0.2"
     cx="20"
     cy="21"
     r="20"
     id="circle1" />
  <circle
     style="fill:#e4e4e4"
     cx="20"
     cy="20"
     r="20"
     id="circle2" />
  <path
     style="opacity:0.1"
     d="M 20.296875,7 C 14.807079,7 9.918567,10.159766 7.541016,14.759766 l 3.33789,2.259765 L 7.53125,14.759766 C 6.561862,16.639766 6,18.76 6,21 c 0,2.32 0.592435,4.499922 1.623047,6.419922 L 12.5625,23.943359 A 8,8 0 0 1 12,21 8,8 0 0 1 12.537109,18.140625 8,8 0 0 1 20,13 8,8 0 0 1 25.5,15.203125 L 29.683594,10.75 C 27.255022,8.43 23.970345,7 20.296875,7 Z M 20,18 v 6 h 7.408203 c -0.589832,1.456204 -1.597432,2.703639 -2.892578,3.591797 A 8,8 0 0 1 20,29 8,8 0 0 1 12.566406,23.949219 L 7.632812,27.419922 C 10.040978,31.919922 14.878508,35 20.296875,35 23.888712,35 27.101164,33.649922 29.519531,31.419922 32.284838,28.859922 34,25.13 34,21 34,20.328025 33.94037,19.676599 33.851562,19.033203 l 0.01172,-0.08008 L 33.699219,18 h -2.345703 z"
     id="path2" />
  <path
     style="opacity:0.2;fill:#ffffff"
     d="M 20,0 A 20,20 0 0 0 0,20 20,20 0 0 0 0.0215,20.582 20,20 0 0 1 20,1 20,20 0 0 1 39.979,20.418 20,20 0 0 0 40,20 20,20 0 0 0 20,0 Z"
     id="path3" />
  <path
     style="fill:#3779d7"
     d="m 20,17 v 6 h 7.408203 c -0.595784,1.470898 -1.615579,2.731365 -2.929687,3.621094 l 5.041015,3.798828 C 32.284838,27.859922 34,24.13 34,20 34,19.328025 33.94037,18.676599 33.851562,18.033203 l 0.01172,-0.08008 L 33.699219,17 h -2.345703 z"
     id="path4" />
  <path
     style="fill:#e7453c"
     d="M 20.296875,6 C 14.807079,6 9.918567,9.159766 7.541016,13.759766 l 4.996093,3.380859 A 8,8 0 0 1 20,12 8,8 0 0 1 25.5,14.203125 L 29.683594,9.75 C 27.255022,7.43 23.970345,6 20.296875,6 Z"
     id="path5" />
  <path
     style="fill:#eead33"
     d="M 7.53125,13.759766 C 6.561862,15.639766 6,17.76 6,20 c 0,2.32 0.592435,4.499922 1.623047,6.419922 L 12.5625,22.943359 A 8,8 0 0 1 12,20 8,8 0 0 1 12.537109,17.140625 l -1.658203,-1.121094 z"
     id="path6" />
  <path
     style="fill:#359950"
     d="M 12.566406,22.949219 7.632812,26.419922 C 10.040977,30.919922 14.878508,34 20.296875,34 c 3.591837,0 6.804289,-1.350078 9.222656,-3.580078 L 24.53125,26.582031 A 8,8 0 0 1 20,28 8,8 0 0 1 12.566406,22.949219 Z"
     id="path7" />
</svg>
